<svg xmlns="http://www.w3.org/2000/svg" xmlns:xlink="http://www.w3.org/1999/xlink" viewBox="0 0 185.12 192.61"><defs><style>.cls-1{fill:url(#linear-gradient);}.cls-2{fill:url(#linear-gradient-2);}.cls-3{fill:url(#linear-gradient-3);}.cls-4{fill:url(#linear-gradient-4);}.cls-5{fill:url(#linear-gradient-5);}.cls-6{fill:url(#linear-gradient-6);}</style><linearGradient id="linear-gradient" x1="50.95" y1="17.61" x2="147.31" y2="184.51" gradientUnits="userSpaceOnUse"><stop offset="0.03" stop-color="#38409a"/><stop offset="0.46" stop-color="#1d86cb"/><stop offset="0.92" stop-color="#00cfff"/></linearGradient><linearGradient id="linear-gradient-2" x1="60.75" y1="-0.06" x2="60.75" y2="191.61" gradientUnits="userSpaceOnUse"><stop offset="0" stop-color="#00cfff"/><stop offset="0.96" stop-color="#1e079d"/></linearGradient><linearGradient id="linear-gradient-3" x1="9.46" y1="57.95" x2="163.51" y2="194.55" gradientUnits="userSpaceOnUse"><stop offset="0" stop-color="#ff8643"/><stop offset="1" stop-color="#bb008f"/></linearGradient><linearGradient id="linear-gradient-4" x1="73.19" y1="71.56" x2="126.53" y2="181.56" gradientUnits="userSpaceOnUse"><stop offset="0" stop-color="#ff390e"/><stop offset="1" stop-color="#9d0074"/></linearGradient><linearGradient id="linear-gradient-5" x1="90.82" y1="39.14" x2="103.24" y2="155.13" xlink:href="#linear-gradient-2"/><linearGradient id="linear-gradient-6" x1="77.95" y1="119.35" x2="130" y2="63.19" xlink:href="#linear-gradient-3"/></defs><g id="OBJECTS"><path class="cls-1" d="M96.39,192.72A96.36,96.36,0,1,1,183,54a21,21,0,1,1-37.72,18.47,54.37,54.37,0,1,0-.94,49.52,21,21,0,1,1,37,19.88A96.29,96.29,0,0,1,96.39,192.72Z"/><path class="cls-2" d="M96.39,150.72A54.38,54.38,0,0,1,43.14,85.41C54.91,18.46,121.5,3.32,121.5,3.32,51-14.76-1.54,43.24,0,96.36c1.43,48.13,35.52,88.18,81.73,95.25C92.67,177.1,102.45,159.92,96.39,150.72Z"/><path class="cls-3" d="M172.76,113.47A21,21,0,0,0,144.32,122a54.33,54.33,0,0,1-47.93,28.69C10,152.18,6.37,62,6.37,62a96.36,96.36,0,0,0,175,79.91A21,21,0,0,0,172.76,113.47Z"/><path class="cls-4" d="M181.32,141.91a21,21,0,1,0-37-19.88,4.08,4.08,0,0,1-.22.39,54.23,54.23,0,0,1-11.83,14.77c-14.37,14.36-43,34.08-93.2,36.57a96.29,96.29,0,0,0,142.25-31.85Z"/><path class="cls-5" d="M96.83,59.25a36,36,0,1,0,36,36A36,36,0,0,0,96.83,59.25Zm0,60.67A24.67,24.67,0,1,1,121.5,95.25,24.67,24.67,0,0,1,96.83,119.92Z"/><path class="cls-6" d="M119.63,67.39a31.67,31.67,0,1,0,12.16,36.44,36,36,0,0,0-12.16-36.44Zm-22.8,52.53A24.67,24.67,0,1,1,121.5,95.25,24.67,24.67,0,0,1,96.83,119.92Z"/></g></svg>